<?xml version="1.0" encoding="utf-8"?>
<!-- Generator: Adobe Illustrator 18.0.0, SVG Export Plug-In . SVG Version: 6.00 Build 0)  -->
<!DOCTYPE svg PUBLIC "-//W3C//DTD SVG 1.1//EN" "http://www.w3.org/Graphics/SVG/1.1/DTD/svg11.dtd">
<svg version="1.1" xmlns="http://www.w3.org/2000/svg" xmlns:xlink="http://www.w3.org/1999/xlink" x="0px" y="0px"
	 viewBox="0 0 407.4 406.4" enable-background="new 0 0 407.4 406.4" xml:space="preserve">
<g id="Layer_1">
	<circle fill="#80BEB7" stroke="#757679" stroke-width="3.744" stroke-miterlimit="10" cx="203.6" cy="203.2" r="199"/>
	<rect x="-63.1" y="-102.4" fill="#EBA596" width="117" height="35"/>
	<rect x="63.9" y="-102.4" fill="#73B4BD" width="117" height="35"/>
	<rect x="194.9" y="-102.4" fill="#B5B1B0" width="117" height="35"/>
</g>
<g id="Layer_2">
	<path fill="#F58A72" stroke="#913D3E" stroke-width="5.04" stroke-miterlimit="10" d="M953,200.9c0.4-0.4,0.8-0.7,1.2-1.1h-148
		c0.2,0.2,0.4,0.4,0.7,0.6c20.7,17.9,24,49,7.4,70.8c-10.3,13.5-16.6,30.3-17,48.5c-1,45.5,35.5,83.8,81,84.8
		c46.8,1.1,85-36.5,85-83c0-18.7-6.2-35.9-16.6-49.8C930.2,249.9,932.7,219.2,953,200.9z"/>
	<g>
		<path fill="#F58A72" stroke="#913D3E" stroke-width="3.7502" stroke-miterlimit="10" d="M688.4,234.9c0,19.4,15.7,35.1,35.1,35.1
			c10.4,0,19.7-4.5,26.1-11.7c-1.1-1.7-2.2-3.4-3.4-5c-10.4-13.8-10.6-32.4-1.1-46.1c-6-4.7-13.5-7.5-21.6-7.5
			C704.1,199.8,688.4,215.5,688.4,234.9z"/>
		<path fill="#F58A72" stroke="#913D3E" stroke-width="3.7502" stroke-miterlimit="10" d="M648.5,252.9c-1.9,2.4-3.6,5-5,7.7
			c7,12.8,20.6,21.6,36.2,21.6c22.8,0,41.2-18.4,41.2-41.2s-18.4-41.2-41.2-41.2c-10.9,0-20.7,4.2-28.1,11.1
			C658.8,224,658,240.5,648.5,252.9z"/>
		<path fill="#F58A72" stroke="#913D3E" stroke-width="3.7502" stroke-miterlimit="10" d="M642.5,200.3
			c15.4,13.4,17.9,36.5,5.5,52.7c-7.7,10-12.4,22.5-12.7,36.1c-0.4,16.6,6,31.8,16.5,43.2c35.5-1.2,63.9-30.4,63.9-66.2
			c0-36.6-29.6-66.2-66.2-66.2C647.1,199.8,644.7,200,642.5,200.3C642.4,200.2,642.5,200.2,642.5,200.3z"/>
		<path fill="#F58A72" stroke="#913D3E" stroke-width="3.7502" stroke-miterlimit="10" d="M746.5,253.3
			c-12.2-16.3-10.4-39.1,4.7-52.7c0.3-0.3,0.6-0.5,0.9-0.8h-1.8c-38.3,4.2-68.1,36.7-68.1,76.2c0,30.5,17.8,56.8,43.5,69.1
			c19.7-10.3,33.1-31,33.1-54.7C758.8,276.5,754.2,263.7,746.5,253.3z"/>
		<path fill="#F58A72" stroke="#913D3E" stroke-width="3.7502" stroke-miterlimit="10" d="M673.1,267.6c-12.7,0-24.8,2.5-35.9,6.9
			c-1.2,4.6-1.9,9.5-2,14.5c-0.7,33.9,26.4,62.3,60.2,63.1c26.9,0.6,50-15.9,59.1-39.4C737.5,285.6,707.4,267.6,673.1,267.6z"/>
	</g>
	<path fill="none" stroke="#FFFFFF" stroke-width="2.7046" stroke-miterlimit="10" d="M711.1,219c0.3-0.3,0.6-0.5,0.9-0.8H605.3
		c0.2,0.1,0.3,0.3,0.5,0.4c14.9,12.9,17.3,35.4,5.3,51c-7.5,9.7-12,21.8-12.3,35c-0.7,32.8,25.6,60.4,58.4,61.2
		c33.7,0.8,61.3-26.3,61.3-59.8c0-13.5-4.5-25.9-12-35.9C694.7,254.3,696.4,232.2,711.1,219z"/>
	<g>
		<g>
			<path fill="#F58A72" stroke="#913D3E" stroke-width="2.4021" stroke-miterlimit="10" d="M711.4,65.1
				c2.7,12.1,14.6,19.8,26.8,17.1c6.5-1.4,11.7-5.5,14.7-10.9c-0.9-0.9-1.8-1.8-2.8-2.7c-8.4-7.2-11.1-18.8-7-28.7
				c-4.4-2.1-9.4-2.8-14.6-1.7C716.4,41,708.7,53,711.4,65.1z"/>
			<path fill="#F58A72" stroke="#913D3E" stroke-width="2.4021" stroke-miterlimit="10" d="M688.9,81.8c-0.8,1.8-1.5,3.6-2.1,5.5
				c6.1,7.1,15.8,10.7,25.6,8.5c14.2-3.1,23.3-17.2,20.1-31.4c-3.1-14.2-17.2-23.3-31.4-20.1c-6.8,1.5-12.4,5.5-16.1,10.8
				C691.3,62.3,693.1,72.7,688.9,81.8z"/>
			<path fill="#F58A72" stroke="#913D3E" stroke-width="2.4021" stroke-miterlimit="10" d="M677.9,49.7
				c11.5,6.2,16.2,20.4,10.7,32.2c-3.4,7.3-4.6,15.8-3,24.3c2,10.4,8.1,19.1,16.2,24.8c22-5.6,35.8-27.8,30.9-50.2
				c-5-22.9-27.6-37.4-50.5-32.4C680.7,48.8,679.3,49.2,677.9,49.7C677.9,49.7,677.9,49.7,677.9,49.7z"/>
			<path fill="#F58A72" stroke="#913D3E" stroke-width="2.4021" stroke-miterlimit="10" d="M750.2,68.6c-9.9-8.5-11.9-23-4.3-33.6
				c0.2-0.2,0.3-0.4,0.5-0.6l-1.2,0.3c-23.4,7.9-37.6,32.3-32.2,57c4.2,19.1,18.9,33.1,36.7,37.3c10.9-9.2,16.5-23.9,13.2-38.8
				C761.1,81.4,756.5,74,750.2,68.6z"/>
			<path fill="#F58A72" stroke="#913D3E" stroke-width="2.4021" stroke-miterlimit="10" d="M706.3,87.6c-7.9,1.7-15.2,4.9-21.5,9.3
				c-0.1,3.1,0.1,6.2,0.7,9.3c4.2,21.3,25.1,35.4,46.4,31.2c16.9-3.3,29.1-16.8,31.6-32.8C749.1,90.1,727.8,82.9,706.3,87.6z"/>
		</g>
		
			<line fill="none" stroke="#913D3E" stroke-width="2.4021" stroke-linecap="round" stroke-miterlimit="10" x1="711" y1="48.3" x2="720.1" y2="53.2"/>
	</g>
	<g>
		<g>
			<path fill="#708D4F" stroke="#444E47" stroke-width="2.8633" stroke-miterlimit="10" d="M282.3,210.4
				c-25.3,3.3-48.8-17.8-48.8-17.8s17.4-26.3,42.7-29.5s48.8,17.8,48.8,17.8S307.6,207.1,282.3,210.4z"/>
			<g>
				
					<line fill="none" stroke="#444E47" stroke-width="2.8633" stroke-linecap="round" stroke-miterlimit="10" x1="233.6" y1="192.6" x2="325" y2="180.9"/>
				<polyline fill="none" stroke="#444E47" stroke-width="2.8633" stroke-linecap="round" stroke-miterlimit="10" points="
					315.6,173.8 309.3,182.9 315.8,191.8 				"/>
				<polyline fill="none" stroke="#444E47" stroke-width="2.8633" stroke-linecap="round" stroke-miterlimit="10" points="
					308.5,170.5 299.8,183.8 309.2,197.9 				"/>
				<polyline fill="none" stroke="#444E47" stroke-width="2.8633" stroke-linecap="round" stroke-miterlimit="10" points="
					300.9,167.5 289.5,185 301.7,203.2 				"/>
				<polyline fill="none" stroke="#444E47" stroke-width="2.8633" stroke-linecap="round" stroke-miterlimit="10" points="
					293.6,165.5 279.3,186.9 292.5,207.9 				"/>
				<polyline fill="none" stroke="#444E47" stroke-width="2.8633" stroke-linecap="round" stroke-miterlimit="10" points="
					284.3,163.7 268.6,188.8 282.3,210.4 				"/>
				<polyline fill="none" stroke="#444E47" stroke-width="2.8633" stroke-linecap="round" stroke-miterlimit="10" points="
					276.3,163.1 258.7,189.6 271.9,210.5 				"/>
				<polyline fill="none" stroke="#444E47" stroke-width="2.8633" stroke-linecap="round" stroke-miterlimit="10" points="
					267.8,165.1 252.2,189.9 264.5,209.1 				"/>
				<polyline fill="none" stroke="#444E47" stroke-width="2.8633" stroke-linecap="round" stroke-miterlimit="10" points="
					253,172.9 242.6,191.3 251,204 				"/>
			</g>
		</g>
		<g>
			<path fill="#708D4F" stroke="#444E47" stroke-width="2.8633" stroke-miterlimit="10" d="M175.2,258.6
				c10.8-24.3,42.2-33.9,42.2-33.9s14,29.8,3.3,54.1c-10.8,24.3-42.2,33.9-42.2,33.9S164.5,282.9,175.2,258.6z"/>
			<g>
				
					<line fill="none" stroke="#444E47" stroke-width="2.8633" stroke-linecap="round" stroke-miterlimit="10" x1="217" y1="225.3" x2="178.5" y2="312.7"/>
				<polyline fill="none" stroke="#444E47" stroke-width="2.8633" stroke-linecap="round" stroke-miterlimit="10" points="
					193.9,304.3 188.7,292.7 173.3,294.8 				"/>
				<polyline fill="none" stroke="#444E47" stroke-width="2.8633" stroke-linecap="round" stroke-miterlimit="10" points="
					200.2,300.1 192.5,284.4 171.5,286.4 				"/>
				<polyline fill="none" stroke="#444E47" stroke-width="2.8633" stroke-linecap="round" stroke-miterlimit="10" points="
					206.2,295.2 196.4,275.3 172.2,277.3 				"/>
				<polyline fill="none" stroke="#444E47" stroke-width="2.8633" stroke-linecap="round" stroke-miterlimit="10" points="
					211.4,290.2 199.8,266 173.6,267.3 				"/>
				<polyline fill="none" stroke="#444E47" stroke-width="2.8633" stroke-linecap="round" stroke-miterlimit="10" points="
					217.3,283.3 203.3,256.2 176.4,257.7 				"/>
				<polyline fill="none" stroke="#444E47" stroke-width="2.8633" stroke-linecap="round" stroke-miterlimit="10" points="
					221.1,275.5 207.4,247.5 182.3,248.8 				"/>
				<polyline fill="none" stroke="#444E47" stroke-width="2.8633" stroke-linecap="round" stroke-miterlimit="10" points="
					223.5,267.6 210.3,242.1 186.4,243.5 				"/>
				<polyline fill="none" stroke="#444E47" stroke-width="2.8633" stroke-linecap="round" stroke-miterlimit="10" points="
					224.1,251.7 213.7,233.4 197.6,234.6 				"/>
			</g>
		</g>
		<g>
			<path fill="#F58A72" stroke="#913D3E" stroke-width="2.6395" stroke-miterlimit="10" d="M259.1,120.3L259.1,120.3
				c0,0-19.1,5-28.8,3.5c-14.6-2.3-31.6,5.3-41.4,17.7c-14.3,18.1-9.8,42.5,8,57.1c18.5,15.1,44.1,14,58.7-4.7
				c9.8-12.6,13-31.1,7.1-44.8C259,140,257.8,130,259.1,120.3z"/>
			<path fill="none" stroke="#FFFFFF" stroke-width="2.6395" stroke-miterlimit="10" d="M250,197.2c18.8-24,12.6-42,11.4-45.6
				c-1.6-4.8-6.1-8.5-5-28.7c-10,2.3-17,5.1-27,3.6c-5.6-0.9-14.1-0.8-26.4,6.2"/>
			
				<line fill="none" stroke="#913D3E" stroke-width="2.6395" stroke-linecap="round" stroke-miterlimit="10" x1="224.1" y1="149.8" x2="238.2" y2="138.9"/>
			
				<line fill="none" stroke="#913D3E" stroke-width="2.6395" stroke-linecap="round" stroke-miterlimit="10" x1="229.6" y1="154.8" x2="244.6" y2="142.3"/>
			
				<line fill="none" stroke="#913D3E" stroke-width="2.6395" stroke-linecap="round" stroke-miterlimit="10" x1="233.5" y1="166.3" x2="243.5" y2="153.6"/>
		</g>
		<g>
			<path fill="#F58A72" stroke="#913D3E" stroke-width="2.6395" stroke-miterlimit="10" d="M102.8,175.7c0,0,14.1,14.3,16.9,25.1
				c3.7,14.3,18.3,26.3,33.7,29.8c22.4,5.2,42.6-9.3,48.2-31.7c5.7-23.2-6.2-45.9-29.4-51c-15.6-3.5-33.5,1.7-43.6,12.8
				C120.4,169.8,102.8,175.7,102.8,175.7z"/>
			<path fill="none" stroke="#FFFFFF" stroke-width="2.6395" stroke-miterlimit="10" d="M144.6,153.3c-3.9,0.5-7.5,1.9-12.4,7.5
				c-6.5,7.4-16.1,12.3-25.1,16.1c0,0,12.9,12.9,15.5,23.7c1.8,7.5,7.7,15.2,14.2,20.5"/>
			
				<line fill="none" stroke="#913D3E" stroke-width="2.6395" stroke-linecap="round" stroke-miterlimit="10" x1="147.3" y1="198.9" x2="132.5" y2="193.2"/>
			
				<line fill="none" stroke="#913D3E" stroke-width="2.6395" stroke-linecap="round" stroke-miterlimit="10" x1="153.3" y1="193.2" x2="126.3" y2="183.7"/>
			
				<line fill="none" stroke="#913D3E" stroke-width="2.6395" stroke-linecap="round" stroke-miterlimit="10" x1="151.2" y1="184.8" x2="133.8" y2="180.7"/>
		</g>
		<g>
			<path fill="#F58A72" stroke="#913D3E" stroke-width="2.6395" stroke-miterlimit="10" d="M132.3,263.7L132.3,263.7
				c9.7-1.4,19.7-0.2,28.8,3.6c13.6,5.7,31.9,2.5,44.4-7.2c18.2-14.1,19.8-38.9,6-57.3c-14.3-19.1-39.4-24.3-58.1-9.6
				c-12.6,9.9-20.1,27-17.7,41.8C137.2,244.7,132.3,263.7,132.3,263.7z"/>
			<path fill="none" stroke="#FFFFFF" stroke-width="2.6105" stroke-miterlimit="10" d="M158.3,191.6c-12.6,9.9-21.2,24.1-20.3,40.6
				c0.8,13.4-0.6,21.1-2.3,28.5c0,0,12.7-0.9,23.7,3.6c18.3,7.6,40.5,1.5,53.3-15.4"/>
			
				<line fill="none" stroke="#913D3E" stroke-width="2.6395" stroke-linecap="round" stroke-miterlimit="10" x1="182.9" y1="224.1" x2="162.7" y2="244"/>
			
				<line fill="none" stroke="#913D3E" stroke-width="2.6395" stroke-linecap="round" stroke-miterlimit="10" x1="192.2" y1="228.4" x2="177.7" y2="241.9"/>
			
				<line fill="none" stroke="#913D3E" stroke-width="2.6395" stroke-linecap="round" stroke-miterlimit="10" x1="174.5" y1="220.3" x2="163.5" y2="233.3"/>
		</g>
		<g>
			<path fill="#F58A72" stroke="#913D3E" stroke-width="2.6395" stroke-miterlimit="10" d="M271.4,253.8c0,0-5.6-18.9-4.4-28.7
				c1.8-14.7-6.3-31.4-19-40.8c-18.5-13.7-42.8-8.4-56.8,9.9c-14.5,19-12.6,44.6,6.6,58.5c12.9,9.4,31.5,12,45,5.7
				C251.8,254.2,271.4,253.8,271.4,253.8z"/>
			<path fill="none" stroke="#FFFFFF" stroke-width="2.6395" stroke-miterlimit="10" d="M185,226.4c1.5,9.8,4.4,14.7,11,21.1
				c12.2,11.8,33.5,14.6,47,8.4c9.4-4.3,24.8-4.7,24.8-4.7c-2.2-8.8-4-17.4-3.3-26.3c2-26.6-17.4-38.8-24.5-42.4
				c-5.3-2.8-13.6-4.1-18.2-3.6"/>
			
				<line fill="none" stroke="#913D3E" stroke-width="2.6395" stroke-linecap="round" stroke-miterlimit="10" x1="222.6" y1="215.5" x2="242.1" y2="239.5"/>
			
				<line fill="none" stroke="#913D3E" stroke-width="2.6395" stroke-linecap="round" stroke-miterlimit="10" x1="216.7" y1="219.7" x2="225.9" y2="237.4"/>
			
				<line fill="none" stroke="#913D3E" stroke-width="2.6395" stroke-linecap="round" stroke-miterlimit="10" x1="208.7" y1="225.3" x2="217.4" y2="236.9"/>
			
				<line fill="none" stroke="#913D3E" stroke-width="2.6395" stroke-linecap="round" stroke-miterlimit="10" x1="226.4" y1="209.5" x2="248.5" y2="226.5"/>
			
				<line fill="none" stroke="#913D3E" stroke-width="2.6395" stroke-linecap="round" stroke-miterlimit="10" x1="230.1" y1="203.4" x2="241.4" y2="209.2"/>
		</g>
		<g>
			<path fill="#F58A72" d="M235.6,163.9c-4.5-8.7-11.5-15.3-19.6-19.2c-12.9-6.3-19-21.1-13.9-34.5c0.1-0.3,0.2-0.5,0.3-0.8
				l-1.2,0.6c-2.7,1.8-5.2,3.8-7.5,6c-3.2,0.2-6.3,1.1-9.3,2.6c-4.9,2.5-8.6,6.5-10.9,11.1c-5.5-0.6-11.2,0.3-16.5,3
				c-2.9,1.5-5.5,3.4-7.6,5.6c-3.9,0.8-7.7,2.2-11.3,4.1c-1.5,0.8-2.9,1.6-4.3,2.5c0,0,0,0,0.1,0c13.9,3.4,22.9,17.1,20.3,31.2
				c-1,5.5-0.9,11.3,0.3,16.9c0,0-0.1,0.1-0.1,0.1c0.7,3.3,1.8,6.6,3.4,9.7c10.4,21.5,36.5,30.6,58,20.2c6.9-3.3,12.5-8.3,16.7-14.1
				c0,0,0,0,0.1,0C241.5,196,243.2,178.8,235.6,163.9z"/>
			<path fill="#F58A72" stroke="#913D3E" stroke-width="2.6395" stroke-miterlimit="10" d="M218.3,147.2c-1.2-0.7-2.5-1.4-3.7-2.1
				c-11-5.3-17.1-16.9-15.5-28.5c-5.2-1-10.8-0.4-15.9,2.3c-12.1,6.2-16.9,21.1-10.7,33.2"/>
			<path fill="#F58A72" stroke="#913D3E" stroke-width="2.6395" stroke-miterlimit="10" d="M182.7,133.3c-8.1-4.4-18.2-4.8-27-0.3
				c-6.8,3.5-11.6,9.3-14,16c8.7,5.9,13.5,16.5,11.6,27.3c-0.4,2.1-0.6,4.3-0.7,6.5"/>
			<path fill="#F58A72" stroke="#913D3E" stroke-width="2.6395" stroke-miterlimit="10" d="M177.3,141.8c-12.5-5.7-27.4-5.8-40.6,1
				c-1.5,0.8-2.9,1.6-4.3,2.5c0,0,0,0,0.1,0c13.9,3.4,22.9,17.1,20.3,31.2c-1.6,8.8-0.5,18.1,3.7,26.7c5.1,10.5,14,18,24.2,21.8"/>
			
				<line fill="none" stroke="#913D3E" stroke-width="2.6395" stroke-linecap="round" stroke-miterlimit="10" x1="167.3" y1="134.4" x2="178.4" y2="137.1"/>
			<path fill="none" stroke="#FFFFFF" stroke-width="2.6395" stroke-linecap="round" stroke-miterlimit="10" d="M176.1,143.4
				c-7.7-2.4-19-7.6-38.1,1.1c24.6,10.8,15,33.5,17,45.1c6.4,37.3,51,46.8,71.6,20.8c16.5-20.8,11.5-51.1-10.7-62.1
				c-16.3-8.1-21-19.2-18.8-34.2c-28.3,25-15.7,59.1-15.7,59.1"/>
			<path fill="none" stroke="#913D3E" stroke-width="2.6395" stroke-miterlimit="10" d="M173.3,177.6c-7.9,4.1-14.7,9.5-20.2,15.9
				c0.7,3.3,1.8,6.6,3.4,9.7c10.4,21.5,36.5,30.6,58,20.2c17-8.2,26.2-26,24.3-43.7c-11.2-6.7-24.1-10-37.2-9.5
				c-7.5,0.3-15.1,1.8-22.4,4.7C177.2,175.7,175.2,176.6,173.3,177.6z"/>
			<path fill="none" stroke="#913D3E" stroke-width="2.6395" stroke-miterlimit="10" d="M238.8,179.7c-1.3-19.4-15.9-30.6-24.1-34.6
				c-12.9-6.3-19-21.1-13.9-34.5c0.1-0.3,0.2-0.5,0.3-0.8l-1.2,0.6c-21.4,14.1-29.9,41.6-20.1,65.5"/>
		</g>
	</g>
</g>
<g id="Layer_3">
</g>
</svg>
