<?xml version="1.0" encoding="utf-8"?>
<!-- Generator: Adobe Illustrator 18.0.0, SVG Export Plug-In . SVG Version: 6.00 Build 0)  -->
<!DOCTYPE svg PUBLIC "-//W3C//DTD SVG 1.1//EN" "http://www.w3.org/Graphics/SVG/1.1/DTD/svg11.dtd">
<svg version="1.1" id="Layer_1" xmlns="http://www.w3.org/2000/svg" xmlns:xlink="http://www.w3.org/1999/xlink" x="0px" y="0px"
	 viewBox="0 0 792 612" enable-background="new 0 0 792 612" xml:space="preserve">
<path fill="#93A8AC" d="M516,36.2H277.1c-83.4,0-151.1,67.6-151.1,150.4v238.9c0,82.8,67.6,150.4,150.4,150.4H516
	c82.8,0,150.4-67.6,150.4-150.4V186.7C666.4,103.9,598.8,36.2,516,36.2z M622.2,425.6c0,58.8-48,106.2-106.2,106.2H277.1
	c-58.8,0-106.2-48-106.2-106.2V186.7c0-58.8,48-106.2,106.2-106.2H516c58.8,0,106.2,48,106.2,106.2V425.6z"/>
<path fill="#93A8AC" d="M396.6,166.4c-77.1,0-139.7,63.2-139.7,139.7c0,77.1,62.6,139.7,139.7,139.7s139.7-62.6,139.7-139.7
	C536.2,229.6,473.7,166.4,396.6,166.4z M396.6,401.6c-52.5,0-95.4-43-95.4-95.4s43-95.4,95.4-95.4s95.4,43,95.4,95.4
	S449,401.6,396.6,401.6z"/>
<circle fill="#93A8AC" cx="540" cy="163.9" r="36"/>
</svg>
